<?xml version="1.0" encoding="UTF-8" standalone="no"?>
<!-- Generator: Adobe Illustrator 25.2.0, SVG Export Plug-In . SVG Version: 6.00 Build 0)  -->

<svg
   xmlns:dc="http://purl.org/dc/elements/1.1/"
   xmlns:cc="http://creativecommons.org/ns#"
   xmlns:rdf="http://www.w3.org/1999/02/22-rdf-syntax-ns#"
   xmlns:svg="http://www.w3.org/2000/svg"
   xmlns="http://www.w3.org/2000/svg"
   xmlns:sodipodi="http://sodipodi.sourceforge.net/DTD/sodipodi-0.dtd"
   xmlns:inkscape="http://www.inkscape.org/namespaces/inkscape"
   version="1.1"
   id="Camada_1"
   x="0px"
   y="0px"
   viewBox="0 0 1366 768"
   enable-background="new 0 0 1366 768"
   xml:space="preserve"
   sodipodi:docname="arara2.svg"
   inkscape:version="0.92.5 (2060ec1f9f, 2020-04-08)"><metadata
   id="metadata1887"><rdf:RDF><cc:Work
       rdf:about=""><dc:format>image/svg+xml</dc:format><dc:type
         rdf:resource="http://purl.org/dc/dcmitype/StillImage" /><dc:title></dc:title></cc:Work></rdf:RDF></metadata><defs
   id="defs1885" /><sodipodi:namedview
   pagecolor="#ffffff"
   bordercolor="#666666"
   borderopacity="1"
   objecttolerance="10"
   gridtolerance="10"
   guidetolerance="10"
   inkscape:pageopacity="0"
   inkscape:pageshadow="2"
   inkscape:window-width="1870"
   inkscape:window-height="1016"
   id="namedview1883"
   showgrid="false"
   inkscape:zoom="0.6812244"
   inkscape:cx="695.6454"
   inkscape:cy="230.26835"
   inkscape:window-x="50"
   inkscape:window-y="27"
   inkscape:window-maximized="1"
   inkscape:current-layer="Camada_1" />
<linearGradient
   id="SVGID_1_"
   gradientUnits="userSpaceOnUse"
   x1="-488.5307"
   y1="423.9878"
   x2="-488.5307"
   y2="837.2327"
   gradientTransform="matrix(1.0170472,0.46660313,-0.33969484,1.397011,949.75493,-304.87051)">
	<stop
   offset="0"
   style="stop-color:#000000;stop-opacity:0.7"
   id="stop1707" />
	<stop
   offset="0.2451"
   style="stop-color:#050505;stop-opacity:0.5774"
   id="stop1709" />
	<stop
   offset="0.5238"
   style="stop-color:#121212;stop-opacity:0.4381"
   id="stop1711" />
	<stop
   offset="0.8179"
   style="stop-color:#292929;stop-opacity:0.2911"
   id="stop1713" />
	<stop
   offset="1"
   style="stop-color:#3B3B3B;stop-opacity:0.2"
   id="stop1715" />
</linearGradient>
<path
   d="m 412.69584,463.65312 c -3.27792,-17.7318 -20.37096,-38.45057 -33.67353,-41.36979 -5.43533,-1.19302 -10.69803,0.15613 -16.039,0.46101 -1.06369,0.0603 -2.42011,0.24597 -2.90156,-1.50379 -0.45678,-1.65844 0.46429,-2.81023 1.31138,-3.84417 5.93609,-7.24502 11.45612,-15.29569 17.89725,-21.56273 10.55112,-10.26585 20.2573,-21.46257 29.1743,-34.4591 11.93542,-17.396 18.94162,-37.83492 23.44945,-60.31671 1.12266,-5.59983 0.88891,-11.73578 2.12737,-17.26638 9.91528,-44.28753 20.01606,-88.49699 41.01752,-126.00051 0.93502,-1.67023 0.29165,-2.18721 1.34783,-5.8841 0.7774,-2.72185 -3.12029,0.25629 -4.466,1.2814 -13.54383,10.32182 -24.14213,25.00186 -33.08914,42.16808 -6.17842,11.8536 -9.44562,25.76626 -14.77695,38.26499 0.0686,-1.46992 0.33133,-2.85146 0.62085,-4.22418 3.07098,-14.53274 7.70747,-28.00355 14.22579,-40.26219 1.10337,-2.07673 -0.0579,-1.46108 1.46043,-7.36874 0.76346,-2.97076 -3.41196,0.26512 -5.01929,1.21659 -4.47994,2.6482 -8.2822,6.55276 -11.69631,11.39112 -4.36414,6.18309 -8.34225,13.98337 -13.7304,17.42398 -6.93115,4.42448 -12.8801,10.05229 -18.10955,17.16475 -5.57902,7.58672 -10.00428,17.01894 -18.66284,18.72157 -0.16621,0.0324 -0.3367,0.22976 -0.46323,0.40797 -0.0236,0.0339 -0.0493,0.0648 -0.0729,0.0987 -2.36865,11.46772 -6.16341,30.44998 -6.16341,30.44998 -1.93329,-3.90014 2.29252,-19.61412 5.11473,-29.03161 -7.1381,9.8947 -14.79517,18.92482 -22.79,27.56316 -6.38536,6.90037 -6.91293,18.10002 -7.82114,28.5441 -0.21016,2.41844 -0.15012,5.75006 -2.32897,6.32448 -2.35577,0.62154 -1.97726,-3.01496 -2.73964,-4.79712 -11.27921,-26.36278 -19.95814,-55.28688 -38.8912,-74.09387 -0.57795,-0.57442 -1.03581,-1.47581 -1.39931,-2.34479 -9.1872,-21.96335 -20.4278,-42.26235 -27.56911,-65.89739 -8.68217,-28.73114 -22.37182,-53.74478 -32.72029,-81.225467 -6.00899,-15.95553 -13.25325,-31.229123 -16.56012,-48.971235 -0.7774,-4.17115 -1.98907,-8.208268 -3.17071,-12.211511 -0.72056,-2.439061 -3.2629,-11.978798 -4.14324,-4.213862 -0.35063,3.090067 -1.87862,3.412625 -2.04803,5.537966 -0.42462,5.312618 -0.58975,10.623764 0.0622,15.967312 3.12674,25.641079 8.11279,50.623788 13.98776,75.301607 0.52541,2.20636 1.99227,4.36557 0.37421,7.33486 -1.03044,-1.12232 -1.99656,-1.88821 -2.69675,-2.97812 -12.36326,-19.25622 -25.24443,-37.936545 -35.18328,-59.889575 -1.38431,-3.057663 -4.98284,-11.240893 -5.83316,-6.667652 -0.75701,4.07394 -1.55157,6.761916 -0.83744,10.1333 3.57817,16.904053 8.90413,32.762374 15.6294,47.766437 3.24361,7.23618 6.23739,14.68445 9.47457,22.34628 -2.552,0.6731 -3.37336,-1.39627 -4.30731,-2.75425 -10.15224,-14.74779 -21.15265,-28.48518 -29.12068,-45.85908 -1.16234,-2.534797 -4.27514,-8.31284 -5.00214,-4.931147 -0.58974,2.745419 -1.60304,5.836958 -1.03903,8.775321 2.33755,12.174686 6.91828,22.976666 11.4572,33.786016 3.739,8.90345 7.63455,17.66994 11.87967,26.20519 -7.24747,-9.08905 -13.83012,-18.87033 -19.13035,-30.22758 -1.50653,-3.22705 -5.38279,-11.23795 -6.30387,-6.58665 -0.74523,3.76611 -1.43041,7.28625 -0.56509,11.21439 0.21339,0.96914 0.53935,1.89704 0.85675,2.8161 5.63477,16.32965 11.63519,32.37208 19.24508,47.19644 4.25477,8.28928 8.32617,16.7553 12.48014,25.14179 -5.18764,-4.33317 -9.89061,-9.15974 -14.19684,-14.78461 -4.54749,-5.93859 -9.48851,-11.28655 -13.62318,-17.8511 -1.02402,-1.62458 -4.88204,-4.25805 -4.43168,-1.48318 0.49216,3.02674 -0.59941,3.86479 -0.014,5.65285 1.59233,4.85897 3.26721,9.6178 5.65086,13.95538 5.24339,9.54122 10.80204,18.73041 16.25238,28.17883 -4.96139,-4.46278 -9.48421,-9.53238 -13.99418,-14.62407 -1.1409,-1.28875 -3.6543,-4.26688 -3.85589,-1.70852 -0.34955,4.43479 -0.56722,3.74697 0.029,5.53355 0.76666,2.29767 1.54084,4.66751 2.63991,6.66618 5.24662,9.5471 10.51147,19.07652 16.78423,27.46007 1.43255,1.91471 3.38623,3.54812 3.8398,7.5661 -4.62577,-2.1224 -8.63713,-4.03123 -12.68173,-5.79425 -2.63778,-1.15031 -5.91892,-3.12836 -7.75786,0.45512 -2.11773,4.12843 0.90714,7.56904 2.72571,10.51771 5.10828,8.27602 11.68987,14.0084 18.47841,19.34459 4.2687,3.35665 8.44626,6.9313 12.66457,10.40872 -2.80184,0.91171 -5.14582,0.30784 -7.5091,0.0722 -6.12588,-0.61125 -11.69953,-5.11232 -17.95408,-4.73231 -2.3472,0.14286 -5.29593,-0.92644 -6.39608,2.85293 -1.16555,4.00325 1.77139,5.59836 3.4956,7.70013 5.20372,6.34362 11.47434,10.394 17.59272,14.8936 -4.37272,-0.0221 -8.53741,-0.96325 -12.71604,-1.0914 -2.85117,-0.0869 -5.564,1.49791 -6.69954,5.61456 -0.99185,3.59379 0.48145,6.41874 2.11559,8.93291 3.0313,4.66309 6.85179,7.75168 11.0937,9.84905 3.2243,1.59363 6.49794,3.00464 10.16188,4.68517 -2.00085,2.57457 -3.68753,1.93829 -5.28414,1.92946 -9.07032,-0.05 -11.05831,4.35083 -8.30901,16.09987 1.5505,6.62199 1.56015,14.6815 -0.727,20.38296 -4.39416,10.95221 -3.48273,17.9866 4.99034,23.31395 1.77354,1.11496 4.03281,1.16355 5.32275,4.3906 -2.38795,2.35364 -5.28093,2.01046 -7.82757,3.02674 -6.69954,2.67471 -8.25861,10.13771 -3.54813,17.31056 0.94037,1.4331 2.71497,1.8617 2.92943,5.48347 -0.61762,0.19148 -1.54514,0.3417 -2.39973,0.76736 -2.3472,1.16651 -4.76945,2.76309 -4.35663,6.78843 0.37958,3.69836 2.85545,5.08285 5.24446,5.94742 1.24384,0.45069 2.56809,0.46838 3.85374,0.70992 5.85781,1.10465 11.57729,3.38759 18.99524,2.56867 -6.66951,6.91215 -13.43124,6.15657 -19.17431,9.56036 -2.85331,1.69085 -5.77203,3.33162 -5.30559,8.39974 0.43856,4.76471 3.43126,5.39363 6.31245,5.79425 6.09906,0.84836 12.18312,1.16355 18.28219,-0.13993 1.28458,-0.27542 3.46665,-1.65992 3.74757,1.11054 0.26271,2.58635 -1.87861,3.51279 -3.56314,3.77937 -1.45615,0.22977 -2.96161,0.0545 -4.43491,-0.11636 -6.27491,-0.72612 -12.55198,-2.24464 -18.81617,-2.15185 -20.52538,0.30636 -41.05182,0.50077 -61.45174,4.8251 -4.81878,1.0207 -9.59788,3.51867 -14.77051,2.30356 -12.258181,-2.87944 -24.348015,-6.57192 -36.148334,-11.99059 -8.616756,-3.9561 -17.227072,-7.9402 -25.860983,-11.82119 -1.504393,-0.67605 -3.479513,-2.0355 -4.373785,0.88225 -0.896417,2.9251 0.770962,4.76618 2.465146,5.97982 1.469009,1.05162 3.069907,1.78658 4.647215,2.51417 11.600877,5.34945 23.223201,10.61052 34.803708,16.03948 1.78211,0.83512 4.114299,0.63923 5.182279,4.07836 -0.781682,0.40946 -1.42398,0.86752 -2.108085,1.08846 -24.142131,7.78849 -47.926136,17.36358 -71.628642,27.30393 -5.6508581,2.36984 -11.1044179,5.67936 -16.5644122,8.83277 -2.690323,1.55387 -5.46321,10.63997 -4.0242255,13.03631 2.3085954,3.84417 4.7158394,0.69814 7.00084416,-0.46984 C 22.722274,511.93069 46.320771,502.40863 70.346028,494.844 c 7.907983,-2.48914 15.774149,-5.2537 23.720742,-7.48067 9.16468,-2.57014 18.35724,-5.14471 27.91867,-3.47154 -1.19773,0.5538 -2.37615,1.21806 -3.59747,1.64666 -21.62123,7.58525 -42.485438,17.64196 -61.805584,33.40307 -6.529047,5.32735 -13.114923,10.44113 -19.149653,16.78034 -1.960108,2.05905 -4.478867,5.52912 -3.241469,8.13315 3.580306,7.53369 -1.422901,7.53516 -3.880542,9.37919 -2.742864,2.05906 -5.959671,2.94278 -8.66715,5.06665 -2.333258,1.83077 -7.377211,2.05612 -6.188065,6.5513 1.299591,4.912 5.543631,2.01193 8.352976,0.39031 19.60215,-11.31896 39.088497,-22.98993 58.942627,-33.50618 24.0199,-12.72259 48.80111,-20.41683 74.3833,-23.58938 1.88183,-0.23271 4.01779,-1.27107 5.91142,2.5186 -5.40423,2.1062 -10.03321,5.66464 -14.74263,8.99036 -1.85609,1.31085 -5.23588,1.98543 -4.53248,5.52029 0.80957,4.06511 4.15076,2.19015 6.33819,1.91178 4.14753,-0.52875 8.25004,-1.7203 12.37184,-2.63643 -3.36371,3.67774 -7.08449,5.72061 -10.79132,7.80913 -5.65729,3.18727 -11.28778,6.47324 -16.34674,11.26741 -1.20738,1.14441 -2.4866,2.88975 -1.4926,5.10199 0.85568,1.90441 2.31074,0.72318 3.54492,0.31961 4.68153,-1.53473 9.37486,-3.0017 14.05423,-4.54526 7.82327,-2.58192 15.42352,-6.55276 23.72395,-6.89005 -6.05509,4.87812 -11.14087,11.45005 -16.86679,16.84956 -1.39823,1.31821 -3.79046,3.02968 -2.69139,5.82811 1.11731,2.84558 3.35298,1.00008 4.96675,0.0192 9.79839,-5.95626 19.43595,-12.45011 29.37588,-17.91591 7.35148,-4.04154 13.73684,-10.70625 22.75677,-15.32809 -1.90114,2.97813 -2.63349,4.34789 -3.5224,5.48495 -8.2554,10.55895 -16.5612,21.04426 -24.79408,31.63563 -1.55372,1.99867 -4.30087,4.43184 -2.72571,7.37168 1.61805,3.01936 3.65108,-0.70551 5.11043,-2.08263 11.8711,-11.20407 24.33836,-21.25194 35.28623,-34.26764 1.97726,-2.35069 4.22688,-4.75146 7.94552,-4.37588 -4.58181,10.71361 -8.91378,20.67016 -13.09884,30.74013 -1.2181,2.931 -3.98563,7.13014 -1.75853,9.31292 2.4169,2.36836 3.98885,-3.04147 5.71305,-5.33176 1.85395,-2.46411 3.33691,-5.44518 5.06433,-8.10075 2.16813,-3.3331 4.45099,-0.77031 6.68024,-0.0575 0.71198,0.2283 1.68883,0.62303 1.46472,1.78954 -0.61227,3.19464 -2.86618,3.60852 -4.69333,4.72199 -1.47759,0.89993 -3.34226,-0.1075 -4.61075,1.67171 0.0161,0.37263 -0.0483,0.74526 0.0493,0.86015 4.65687,5.5306 4.6129,5.55269 6.93866,13.36476 0.25948,0.87341 0.79884,1.25488 1.41432,1.4493 l -1.13124,-0.84396 c 0,0 4.40595,1.03396 8.99418,-0.68193 0.86855,-0.52875 1.73816,-1.1341 2.62385,-1.8013 -0.0504,0.21945 -0.12653,0.37852 -0.18335,0.58471 2.01157,-1.25487 3.91377,-3.16665 5.32595,-6.12121 0,0 -3.31867,13.92739 -9.94958,12.78003 -0.53078,0.44629 -0.93074,1.01628 -0.53614,2.13566 0.45786,1.29759 1.50118,1.43456 2.43405,1.25635 3.74115,-0.71582 7.3354,-1.88969 9.51425,-6.75455 3.74222,-8.35556 5.78489,-17.23103 3.06883,-26.82673 -1.49046,-5.26402 -0.0278,-5.98867 3.33368,-6.20812 4.05211,-0.26512 8.40767,-0.22682 12.04158,-2.28442 7.14775,-4.04742 14.35232,-3.99735 21.79923,-3.65565 10.9393,0.50226 22.09947,-1.88821 31.06578,-9.7312 15.96287,-13.96422 34.65681,-21.88969 48.31001,-40.94265 1.91079,-2.66737 4.70512,-1.48024 6.00471,0.75998 1.89791,3.26977 -1.17306,3.89867 -2.47694,5.17123 -1.19666,1.16799 -2.63135,1.86317 -3.91057,2.88682 -0.96183,0.77031 -2.0223,1.75859 -1.66631,3.53486 0.35279,1.75419 1.64165,1.92357 2.7418,1.95007 12.08768,0.29899 23.36581,-1.70852 30.3688,-17.99986 1.05083,-2.44495 1.6009,-5.93121 4.57108,-6.97106 6.45828,-2.25495 8.843,-8.71198 7.17455,-17.7377 z M 40.420126,547.86556 c 12.0834,-25.51294 95.199264,-64.0946 119.234174,-55.6168 -41.22124,13.67701 -80.175704,32.8154 -119.234174,55.6168 z m 188.644284,6.05789 c 2.13704,-1.4655 7.06304,-14.01283 7.06304,-14.01283 4.9689,16.57266 -7.06304,14.01283 -7.06304,14.01283 z m 2.76432,23.4524 0.64764,-2.66441 5.22947,1.24015 0.54792,0.83069 c 0,0 -3.58673,3.56876 -6.42503,0.59357 z m 121.0463,-265.14928 c 0,0 -0.53184,-5.52325 0.93394,-12.70493 0,0 0.10723,11.89485 1.40039,11.97291 z"
   id="path1718"
   style="fill:url(#SVGID_1_);stroke-width:1.25670433"
   inkscape:connector-curvature="0" />
<g
   id="g1850"
   transform="matrix(1.072269,0,0,1.4728634,-125.33368,-138.02789)">
	<linearGradient
   id="SVGID_2_"
   gradientUnits="userSpaceOnUse"
   x1="524.29431"
   y1="471.3244"
   x2="589.98749"
   y2="471.3244">
		<stop
   offset="0"
   style="stop-color:#000000;stop-opacity:0.7"
   id="stop1720" />
		<stop
   offset="0.2451"
   style="stop-color:#050505;stop-opacity:0.5774"
   id="stop1722" />
		<stop
   offset="0.5238"
   style="stop-color:#121212;stop-opacity:0.4381"
   id="stop1724" />
		<stop
   offset="0.8179"
   style="stop-color:#292929;stop-opacity:0.2911"
   id="stop1726" />
		<stop
   offset="1"
   style="stop-color:#3B3B3B;stop-opacity:0.2"
   id="stop1728" />
	</linearGradient>
	<path
   d="m 584.087,574.08 c 0.284,-16.284 -0.333,-35.79 -1.846,-58.514 -9.09,-0.757 -24.903,-0.757 -47.436,0 -3.125,32.005 -4.687,51.746 -4.687,59.225 h -5.823 c 0,-4.638 0.994,-17.942 2.983,-39.909 2.177,-24.712 4.591,-47.767 7.243,-69.166 5.206,-42.512 10.13,-71.059 14.771,-85.641 1.704,-5.302 3.409,-8.852 5.113,-10.652 0.568,-0.661 1.229,-1.087 1.988,-1.278 l 0.852,-0.142 0.852,-0.142 c 1.42,0 2.887,0.759 4.403,2.272 7.101,7.197 13.681,35.364 19.742,84.505 5.681,46.016 8.237,85.832 7.669,119.443 h -5.824 z M 535.23,509.742 c 22.06,-0.757 37.588,-0.757 46.584,0 -2.368,-32.854 -5.918,-63.01 -10.652,-90.47 -4.829,-27.837 -9.138,-42.938 -12.924,-45.306 -3.409,3.125 -7.481,19.648 -12.214,49.567 -3.692,23.956 -7.292,52.691 -10.794,86.209 z"
   id="path1731"
   style="fill:url(#SVGID_2_)"
   inkscape:connector-curvature="0" />
	<linearGradient
   id="SVGID_3_"
   gradientUnits="userSpaceOnUse"
   x1="613.91241"
   y1="514.00299"
   x2="661.91687"
   y2="514.00299">
		<stop
   offset="0"
   style="stop-color:#000000;stop-opacity:0.7"
   id="stop1733" />
		<stop
   offset="0.2451"
   style="stop-color:#050505;stop-opacity:0.5774"
   id="stop1735" />
		<stop
   offset="0.5238"
   style="stop-color:#121212;stop-opacity:0.4381"
   id="stop1737" />
		<stop
   offset="0.8179"
   style="stop-color:#292929;stop-opacity:0.2911"
   id="stop1739" />
		<stop
   offset="1"
   style="stop-color:#3B3B3B;stop-opacity:0.2"
   id="stop1741" />
	</linearGradient>
	<path
   d="m 637.915,455.631 c 5.017,-1.42 9.658,-1.467 13.919,-0.142 4.354,1.232 7.716,3.646 10.084,7.243 l -4.829,3.125 c -1.611,-2.461 -4.026,-4.119 -7.243,-4.971 -3.22,-0.852 -6.675,-0.71 -10.368,0.426 -5.113,1.42 -9.422,4.214 -12.924,8.38 -4.261,5.02 -6.487,11.127 -6.675,18.321 0,0.852 -0.049,1.704 -0.142,2.556 v 0.852 0.71 c 0,3.125 0.047,7.86 0.142,14.203 0,7.765 0.047,15.388 0.142,22.866 0,21.115 -0.095,36.074 -0.284,44.88 l -5.823,-0.142 c 0.189,-8.615 0.235,-23.101 0.142,-43.46 0,-7.479 0,-15.006 0,-22.582 -0.095,-6.533 -0.142,-11.504 -0.142,-14.913 v -4.687 l 0.142,-0.142 v -0.284 c 0,-0.757 0,-1.797 0,-3.125 l 0.142,-1.704 v -1.988 c 0.093,-3.313 0.142,-6.107 0.142,-8.379 0.093,-7.479 0.142,-13.728 0.142,-18.747 h 5.823 l -0.142,8.237 v 8.522 c 5.016,-8.143 10.934,-13.16 17.752,-15.055 z"
   id="path1744"
   style="fill:url(#SVGID_3_)"
   inkscape:connector-curvature="0" />
	<linearGradient
   id="SVGID_4_"
   gradientUnits="userSpaceOnUse"
   x1="664.25201"
   y1="512.58282"
   x2="730.37311"
   y2="512.58282">
		<stop
   offset="0"
   style="stop-color:#000000;stop-opacity:0.7"
   id="stop1746" />
		<stop
   offset="0.2451"
   style="stop-color:#050505;stop-opacity:0.5774"
   id="stop1748" />
		<stop
   offset="0.5238"
   style="stop-color:#121212;stop-opacity:0.4381"
   id="stop1750" />
		<stop
   offset="0.8179"
   style="stop-color:#292929;stop-opacity:0.2911"
   id="stop1752" />
		<stop
   offset="1"
   style="stop-color:#3B3B3B;stop-opacity:0.2"
   id="stop1754" />
	</linearGradient>
	<path
   d="m 730.373,573.796 c -2.272,1.136 -4.356,1.704 -6.249,1.704 -1.516,0 -2.936,-0.38 -4.261,-1.136 -3.409,-2.082 -5.681,-7.052 -6.817,-14.913 -2.556,5.208 -5.823,9.185 -9.8,11.93 -3.883,2.745 -7.86,4.023 -11.93,3.835 -6.913,-0.095 -12.831,-3.551 -17.753,-10.368 -5.872,-8.142 -8.948,-19.835 -9.232,-35.08 -0.475,-22.533 1.183,-40.335 4.971,-53.402 3.786,-13.16 9.325,-21.397 16.617,-24.712 8.047,-3.409 16.284,-1.041 24.712,7.101 0.473,0.475 1.183,1.278 2.13,2.414 v -11.504 h 5.681 c 0,7.008 0.047,15.956 0.142,26.843 0.093,1.895 0.142,3.788 0.142,5.681 0,1.516 0.047,3.031 0.142,4.545 v 1.704 c 0,0.475 0,0.901 0,1.278 v 1.136 h -0.426 c 0.377,11.269 0.377,21.872 0,31.814 l -0.142,7.385 -0.142,7.527 c -0.096,5.588 -0.049,10.321 0.142,14.203 0.568,10.133 2.082,15.956 4.545,17.469 1.041,0.664 2.65,0.475 4.829,-0.568 z m -17.611,-51.271 0.142,-10.084 0.142,-10.368 c 0.093,-6.533 0,-12.072 -0.284,-16.617 -0.664,-11.835 -2.698,-19.362 -6.107,-22.582 -2.084,-1.988 -4.168,-3.502 -6.249,-4.545 -2.556,-1.42 -5.02,-2.13 -7.385,-2.13 -1.611,0 -3.173,0.284 -4.687,0.852 -6.156,2.747 -10.843,10.275 -14.061,22.582 -3.315,12.405 -4.736,29.069 -4.261,49.993 0.377,12.782 2.792,22.773 7.243,29.967 3.881,6.44 8.568,9.707 14.06,9.8 5.113,0.191 9.609,-2.272 13.492,-7.385 4.354,-5.681 6.864,-13.35 7.527,-23.008 0.095,-4.734 0.237,-10.226 0.428,-16.475 z"
   id="path1757"
   style="fill:url(#SVGID_4_)"
   inkscape:connector-curvature="0" />
	<linearGradient
   id="SVGID_5_"
   gradientUnits="userSpaceOnUse"
   x1="743.43951"
   y1="514.00299"
   x2="791.44421"
   y2="514.00299">
		<stop
   offset="0"
   style="stop-color:#000000;stop-opacity:0.7"
   id="stop1759" />
		<stop
   offset="0.2451"
   style="stop-color:#050505;stop-opacity:0.5774"
   id="stop1761" />
		<stop
   offset="0.5238"
   style="stop-color:#121212;stop-opacity:0.4381"
   id="stop1763" />
		<stop
   offset="0.8179"
   style="stop-color:#292929;stop-opacity:0.2911"
   id="stop1765" />
		<stop
   offset="1"
   style="stop-color:#3B3B3B;stop-opacity:0.2"
   id="stop1767" />
	</linearGradient>
	<path
   d="m 767.442,455.631 c 5.018,-1.42 9.658,-1.467 13.919,-0.142 4.354,1.232 7.716,3.646 10.084,7.243 l -4.829,3.125 c -1.611,-2.461 -4.026,-4.119 -7.243,-4.971 -3.22,-0.852 -6.675,-0.71 -10.368,0.426 -5.113,1.42 -9.422,4.214 -12.924,8.38 -4.261,5.02 -6.487,11.127 -6.675,18.321 0,0.852 -0.049,1.704 -0.142,2.556 v 0.852 0.71 c 0,3.125 0.047,7.86 0.142,14.203 0,7.765 0.047,15.388 0.142,22.866 0,21.115 -0.095,36.074 -0.284,44.88 l -5.823,-0.142 c 0.189,-8.615 0.235,-23.101 0.142,-43.46 0,-7.479 0,-15.006 0,-22.582 -0.095,-6.533 -0.142,-11.504 -0.142,-14.913 v -4.687 l 0.142,-0.142 v -0.284 c 0,-0.757 0,-1.797 0,-3.125 l 0.142,-1.704 v -1.988 c 0.093,-3.313 0.142,-6.107 0.142,-8.379 0.093,-7.479 0.142,-13.728 0.142,-18.747 h 5.823 l -0.142,8.237 v 8.522 c 5.016,-8.143 10.935,-13.16 17.752,-15.055 z"
   id="path1770"
   style="fill:url(#SVGID_5_)"
   inkscape:connector-curvature="0" />
	<linearGradient
   id="SVGID_6_"
   gradientUnits="userSpaceOnUse"
   x1="793.77917"
   y1="512.58282"
   x2="859.90033"
   y2="512.58282">
		<stop
   offset="0"
   style="stop-color:#000000;stop-opacity:0.7"
   id="stop1772" />
		<stop
   offset="0.2451"
   style="stop-color:#050505;stop-opacity:0.5774"
   id="stop1774" />
		<stop
   offset="0.5238"
   style="stop-color:#121212;stop-opacity:0.4381"
   id="stop1776" />
		<stop
   offset="0.8179"
   style="stop-color:#292929;stop-opacity:0.2911"
   id="stop1778" />
		<stop
   offset="1"
   style="stop-color:#3B3B3B;stop-opacity:0.2"
   id="stop1780" />
	</linearGradient>
	<path
   d="m 859.9,573.796 c -2.272,1.136 -4.356,1.704 -6.249,1.704 -1.516,0 -2.936,-0.38 -4.261,-1.136 -3.409,-2.082 -5.681,-7.052 -6.817,-14.913 -2.556,5.208 -5.823,9.185 -9.8,11.93 -3.883,2.745 -7.86,4.023 -11.93,3.835 -6.913,-0.095 -12.831,-3.551 -17.753,-10.368 -5.872,-8.142 -8.948,-19.835 -9.232,-35.08 -0.475,-22.533 1.183,-40.335 4.971,-53.402 3.786,-13.16 9.325,-21.397 16.617,-24.712 8.047,-3.409 16.284,-1.041 24.712,7.101 0.473,0.475 1.183,1.278 2.13,2.414 v -11.504 h 5.681 c 0,7.008 0.047,15.956 0.142,26.843 0.093,1.895 0.142,3.788 0.142,5.681 0,1.516 0.047,3.031 0.142,4.545 v 1.704 c 0,0.475 0,0.901 0,1.278 v 1.136 h -0.426 c 0.377,11.269 0.377,21.872 0,31.814 l -0.142,7.385 -0.142,7.527 c -0.095,5.588 -0.049,10.321 0.142,14.203 0.568,10.133 2.082,15.956 4.545,17.469 1.041,0.664 2.65,0.475 4.829,-0.568 z m -17.611,-51.271 0.142,-10.084 0.142,-10.368 c 0.093,-6.533 0,-12.072 -0.284,-16.617 -0.664,-11.835 -2.698,-19.362 -6.107,-22.582 -2.084,-1.988 -4.168,-3.502 -6.249,-4.545 -2.556,-1.42 -5.02,-2.13 -7.385,-2.13 -1.611,0 -3.173,0.284 -4.687,0.852 -6.156,2.747 -10.843,10.275 -14.061,22.582 -3.315,12.405 -4.736,29.069 -4.261,49.993 0.377,12.782 2.792,22.773 7.243,29.967 3.881,6.44 8.568,9.707 14.06,9.8 5.113,0.191 9.609,-2.272 13.492,-7.385 4.354,-5.681 6.864,-13.35 7.527,-23.008 0.095,-4.734 0.237,-10.226 0.428,-16.475 z"
   id="path1783"
   style="fill:url(#SVGID_6_)"
   inkscape:connector-curvature="0" />
	<linearGradient
   id="SVGID_7_"
   gradientUnits="userSpaceOnUse"
   x1="917.39221"
   y1="469.7572"
   x2="996.15411"
   y2="469.7572">
		<stop
   offset="0"
   style="stop-color:#000000;stop-opacity:0.7"
   id="stop1785" />
		<stop
   offset="0.2451"
   style="stop-color:#050505;stop-opacity:0.5774"
   id="stop1787" />
		<stop
   offset="0.5238"
   style="stop-color:#121212;stop-opacity:0.4381"
   id="stop1789" />
		<stop
   offset="0.8179"
   style="stop-color:#292929;stop-opacity:0.2911"
   id="stop1791" />
		<stop
   offset="1"
   style="stop-color:#3B3B3B;stop-opacity:0.2"
   id="stop1793" />
	</linearGradient>
	<path
   d="m 990.28,575.5 c 0.093,-38.251 0.047,-74.752 -0.142,-109.502 -0.191,-40.712 -0.568,-68.503 -1.136,-83.369 -1.895,5.681 -4.498,14.061 -7.811,25.139 -7.765,24.996 -12.973,41.045 -15.623,48.147 -2.556,6.629 -4.782,10.133 -6.675,10.51 -2.272,0.568 -4.498,-1.655 -6.675,-6.675 -2.368,-5.681 -7.15,-19.977 -14.345,-42.892 -1.42,-4.449 -2.605,-8.237 -3.551,-11.362 -1.42,-4.354 -2.698,-8.237 -3.835,-11.646 -2.747,-8.71 -4.971,-15.101 -6.675,-19.173 -0.664,11.173 -0.664,36.074 0,74.705 0.284,14.298 0.661,30.205 1.136,47.721 0.377,13.73 0.757,27.506 1.136,41.329 0.093,3.788 0.189,7.953 0.284,12.498 0.093,1.611 0.142,3.457 0.142,5.539 l 0.142,2.556 v 2.272 c 0.189,6.724 0.284,10.889 0.284,12.498 h -5.823 c 0,-2.366 -0.333,-14.107 -0.994,-35.222 -2.272,-80.102 -3.125,-130.994 -2.556,-152.677 0.284,-9.751 0.852,-16.095 1.704,-19.031 0.568,-1.797 1.562,-2.745 2.983,-2.84 2.177,-0.189 4.403,2.368 6.675,7.669 2.461,5.872 7.337,20.358 14.629,43.46 l 0.852,2.983 0.994,3.125 1.988,6.249 c 1.513,4.924 2.84,9.09 3.977,12.498 3.029,9.185 5.255,15.388 6.675,18.605 1.798,-3.786 4.545,-11.362 8.238,-22.724 1.42,-4.354 3.029,-9.42 4.829,-15.197 1.229,-3.977 2.745,-8.852 4.545,-14.629 5.774,-18.936 9.42,-30.298 10.936,-34.086 1.325,-3.218 2.745,-4.829 4.261,-4.829 h 1.136 l 0.994,0.994 0.142,0.142 c 0.093,0.191 0.189,0.426 0.284,0.71 0.189,0.568 0.377,1.658 0.568,3.267 0.473,4.168 0.852,11.93 1.136,23.292 0.852,31.72 1.183,91.702 0.994,179.946 z"
   id="path1796"
   style="fill:url(#SVGID_7_)"
   inkscape:connector-curvature="0" />
	<linearGradient
   id="SVGID_8_"
   gradientUnits="userSpaceOnUse"
   x1="1014.7079"
   y1="513.07977"
   x2="1071.5219"
   y2="513.07977">
		<stop
   offset="0"
   style="stop-color:#000000;stop-opacity:0.7"
   id="stop1798" />
		<stop
   offset="0.2451"
   style="stop-color:#050505;stop-opacity:0.5774"
   id="stop1800" />
		<stop
   offset="0.5238"
   style="stop-color:#121212;stop-opacity:0.4381"
   id="stop1802" />
		<stop
   offset="0.8179"
   style="stop-color:#292929;stop-opacity:0.2911"
   id="stop1804" />
		<stop
   offset="1"
   style="stop-color:#3B3B3B;stop-opacity:0.2"
   id="stop1806" />
	</linearGradient>
	<path
   d="m 1035.87,573.086 c -6.629,-3.786 -11.788,-11.597 -15.481,-23.434 -3.788,-11.835 -5.681,-27.269 -5.681,-46.3 0,-15.716 3.076,-28.64 9.232,-38.773 5.681,-9.278 12.307,-13.918 19.883,-13.918 7.574,0 13.87,4.782 18.889,14.345 5.87,11.362 8.806,27.979 8.806,49.851 0.093,15.814 -1.562,28.596 -4.971,38.347 -3.409,9.753 -8.144,16.382 -14.203,19.884 -2.652,1.609 -5.35,2.414 -8.095,2.414 -2.84,-0.002 -5.634,-0.808 -8.379,-2.416 z m -7.954,-104.105 c -4.924,9.09 -7.385,20.547 -7.385,34.37 0,19.411 1.94,34.75 5.823,46.016 3.313,9.565 7.527,15.814 12.64,18.747 3.409,2.084 6.91,2.084 10.51,0 4.354,-2.461 8,-7.621 10.936,-15.481 3.597,-9.278 5.397,-21.823 5.397,-37.637 0,-19.031 -2.321,-33.849 -6.959,-44.454 -4.072,-9.374 -9.09,-14.061 -15.055,-14.061 -5.965,0.002 -11.269,4.169 -15.907,12.5 z"
   id="path1809"
   style="fill:url(#SVGID_8_)"
   inkscape:connector-curvature="0" />
	<linearGradient
   id="SVGID_9_"
   gradientUnits="userSpaceOnUse"
   x1="1088.8718"
   y1="479.4198"
   x2="1142.3887"
   y2="479.4198">
		<stop
   offset="0"
   style="stop-color:#000000;stop-opacity:0.7"
   id="stop1811" />
		<stop
   offset="0.2451"
   style="stop-color:#050505;stop-opacity:0.5774"
   id="stop1813" />
		<stop
   offset="0.5238"
   style="stop-color:#121212;stop-opacity:0.4381"
   id="stop1815" />
		<stop
   offset="0.8179"
   style="stop-color:#292929;stop-opacity:0.2911"
   id="stop1817" />
		<stop
   offset="1"
   style="stop-color:#3B3B3B;stop-opacity:0.2"
   id="stop1819" />
	</linearGradient>
	<path
   d="m 1142.105,493.125 c -0.568,29.825 -0.475,57.236 0.284,82.233 l -5.965,0.142 c -0.095,-1.513 -0.142,-3.786 -0.142,-6.817 v -3.977 l -0.142,-4.119 c -4.545,8.996 -10.843,13.539 -18.889,13.634 -6.533,0 -12.263,-3.409 -17.185,-10.226 -5.965,-8.142 -9.516,-20.026 -10.652,-35.648 -1.704,-23.576 0.615,-42.275 6.959,-56.1 2.272,-4.922 4.922,-9.09 7.953,-12.498 1.136,-1.325 2.366,-2.508 3.693,-3.551 0.852,-0.757 1.751,-1.42 2.699,-1.988 6.722,-4.261 13.16,-4.638 19.315,-1.136 1.229,0.664 2.414,1.753 3.551,3.267 l 1.278,1.988 1.42,2.13 c -0.095,-12.687 -0.191,-27.837 -0.284,-45.448 -0.095,-14.391 -0.142,-24.948 -0.142,-31.672 h 5.823 c 0,5.492 0.047,20.594 0.142,45.306 0.093,4.261 0.142,9.327 0.142,15.197 v 7.385 l 0.142,7.243 c 0,11.269 0.047,19.222 0.142,23.86 v 0.142 l 0.142,0.426 c -0.095,0.284 -0.142,0.759 -0.142,1.42 v 0.852 0.71 c 0,0.948 0,1.895 0,2.841 0,0.759 0,1.516 0,2.272 v 0.852 0.71 l 0.142,0.568 h -0.284 z m -6.107,45.306 c 0,-22.44 0.142,-39.767 0.426,-51.981 v -4.403 c 0.093,-12.403 -2.983,-20.403 -9.232,-24.002 -1.895,-0.945 -3.741,-1.42 -5.539,-1.42 -2.652,0 -5.255,0.852 -7.812,2.556 -6.156,3.883 -10.985,11.031 -14.487,21.446 -4.072,12.498 -5.446,28.263 -4.119,47.294 0.945,13.162 3.644,23.434 8.095,30.819 4.07,6.533 8.71,9.8 13.918,9.8 4.449,0 8.379,-2.461 11.788,-7.385 3.881,-5.49 6.154,-13.066 6.817,-22.724 z"
   id="path1822"
   style="fill:url(#SVGID_9_)"
   inkscape:connector-curvature="0" />
	<linearGradient
   id="SVGID_10_"
   gradientUnits="userSpaceOnUse"
   x1="1161.4829"
   y1="512.58282"
   x2="1227.604"
   y2="512.58282">
		<stop
   offset="0"
   style="stop-color:#000000;stop-opacity:0.7"
   id="stop1824" />
		<stop
   offset="0.2451"
   style="stop-color:#050505;stop-opacity:0.5774"
   id="stop1826" />
		<stop
   offset="0.5238"
   style="stop-color:#121212;stop-opacity:0.4381"
   id="stop1828" />
		<stop
   offset="0.8179"
   style="stop-color:#292929;stop-opacity:0.2911"
   id="stop1830" />
		<stop
   offset="1"
   style="stop-color:#3B3B3B;stop-opacity:0.2"
   id="stop1832" />
	</linearGradient>
	<path
   d="m 1227.604,573.796 c -2.272,1.136 -4.356,1.704 -6.249,1.704 -1.516,0 -2.936,-0.38 -4.261,-1.136 -3.409,-2.082 -5.681,-7.052 -6.817,-14.913 -2.557,5.208 -5.823,9.185 -9.8,11.93 -3.884,2.745 -7.86,4.023 -11.93,3.835 -6.913,-0.095 -12.831,-3.551 -17.753,-10.368 -5.872,-8.142 -8.948,-19.835 -9.232,-35.08 -0.475,-22.533 1.183,-40.335 4.971,-53.402 3.786,-13.16 9.325,-21.397 16.617,-24.712 8.047,-3.409 16.284,-1.041 24.713,7.101 0.473,0.475 1.183,1.278 2.13,2.414 v -11.504 h 5.681 c 0,7.008 0.047,15.956 0.142,26.843 0.093,1.895 0.142,3.788 0.142,5.681 0,1.516 0.047,3.031 0.142,4.545 v 1.704 c 0,0.475 0,0.901 0,1.278 v 1.136 h -0.426 c 0.377,11.269 0.377,21.872 0,31.814 l -0.142,7.385 -0.142,7.527 c -0.095,5.588 -0.049,10.321 0.142,14.203 0.568,10.133 2.082,15.956 4.545,17.469 1.041,0.664 2.65,0.475 4.829,-0.568 z m -17.611,-51.271 0.142,-10.084 0.142,-10.368 c 0.093,-6.533 0,-12.072 -0.284,-16.617 -0.663,-11.835 -2.698,-19.362 -6.107,-22.582 -2.084,-1.988 -4.167,-3.502 -6.249,-4.545 -2.557,-1.42 -5.02,-2.13 -7.385,-2.13 -1.611,0 -3.173,0.284 -4.687,0.852 -6.156,2.747 -10.843,10.275 -14.06,22.582 -3.316,12.405 -4.736,29.069 -4.261,49.993 0.377,12.782 2.792,22.773 7.243,29.967 3.881,6.44 8.568,9.707 14.061,9.8 5.113,0.191 9.609,-2.272 13.493,-7.385 4.354,-5.681 6.864,-13.35 7.527,-23.008 0.092,-4.734 0.234,-10.226 0.425,-16.475 z"
   id="path1835"
   style="fill:url(#SVGID_10_)"
   inkscape:connector-curvature="0" />
	<linearGradient
   id="SVGID_11_"
   gradientUnits="userSpaceOnUse"
   x1="1237.2617"
   y1="511.59329"
   x2="1284.6833"
   y2="511.59329">
		<stop
   offset="0"
   style="stop-color:#000000;stop-opacity:0.7"
   id="stop1837" />
		<stop
   offset="0.2451"
   style="stop-color:#050505;stop-opacity:0.5774"
   id="stop1839" />
		<stop
   offset="0.5238"
   style="stop-color:#121212;stop-opacity:0.4381"
   id="stop1841" />
		<stop
   offset="0.8179"
   style="stop-color:#292929;stop-opacity:0.2911"
   id="stop1843" />
		<stop
   offset="1"
   style="stop-color:#3B3B3B;stop-opacity:0.2"
   id="stop1845" />
	</linearGradient>
	<path
   d="m 1237.262,562.15 4.829,-3.267 c 6.058,8.901 13.255,11.599 21.588,8.095 4.922,-2.082 8.852,-5.823 11.788,-11.22 3.218,-7.006 4.165,-14.061 2.84,-21.162 -0.759,-4.545 -3.125,-9.562 -7.101,-15.055 -1.516,-2.177 -3.408,-4.591 -5.681,-7.243 l -3.125,-3.551 -3.125,-3.693 c -6.061,-6.722 -10.179,-11.739 -12.356,-15.055 -3.599,-5.586 -5.397,-10.699 -5.397,-15.339 0,-6.817 1.371,-12.261 4.119,-16.333 2.841,-4.165 6.675,-6.959 11.504,-8.379 4.638,-1.325 9.278,-1.087 13.918,0.71 4.638,1.704 8.331,4.64 11.078,8.806 l -4.829,3.125 c -2.084,-3.029 -4.829,-5.206 -8.238,-6.533 -3.504,-1.325 -6.959,-1.513 -10.368,-0.568 -7.576,2.272 -11.362,8.712 -11.362,19.315 0,3.599 1.655,7.86 4.971,12.782 1.325,1.895 3.076,4.119 5.255,6.675 l 2.983,3.551 2.983,3.551 3.409,3.693 3.266,3.835 c 2.461,2.84 4.496,5.446 6.107,7.811 4.165,5.965 6.722,11.599 7.669,16.901 1.609,8.428 0.426,16.759 -3.551,24.996 -3.599,6.629 -8.428,11.173 -14.487,13.634 -2.747,1.232 -5.634,1.846 -8.664,1.846 -7.858,0.002 -14.533,-3.975 -20.023,-11.928 z"
   id="path1848"
   style="fill:url(#SVGID_11_)"
   inkscape:connector-curvature="0" />
</g>
<g
   id="g1852">
</g>
<g
   id="g1854">
</g>
<g
   id="g1856">
</g>
<g
   id="g1858">
</g>
<g
   id="g1860">
</g>
<g
   id="g1862">
</g>
<g
   id="g1864">
</g>
<g
   id="g1866">
</g>
<g
   id="g1868">
</g>
<g
   id="g1870">
</g>
<g
   id="g1872">
</g>
<g
   id="g1874">
</g>
<g
   id="g1876">
</g>
<g
   id="g1878">
</g>
<g
   id="g1880">
</g>
<rect
   style="fill:none;fill-opacity:1;fill-rule:nonzero;stroke:#240000;stroke-width:0.49807486;stroke-linecap:butt;stroke-linejoin:round;stroke-miterlimit:4;stroke-dasharray:none;stroke-dashoffset:0;stroke-opacity:1"
   id="rect1889"
   width="1355.2219"
   height="763.18799"
   x="8.1806393"
   y="4.0365582" /></svg>